<?xml version="1.0" encoding="utf-8"?>
<svg viewBox="-32.924 7.92 400 400" xmlns="http://www.w3.org/2000/svg">
  <defs/>
  <path fill="#dfdedf" d="M 289.68 231.75 L 38.45 231.75 L 38.45 217.582 C 38.45 208.062 46.167 200.345 55.686 200.345 L 272.443 200.345 C 281.963 200.345 289.68 208.062 289.68 217.582 L 289.68 231.75 Z" transform="matrix(1, 0, 0, 1, 0, 3.552713678800501e-15)"/>
  <path d="M 286.56 228.902 L 286.56 216.196 C 286.56 208.695 280.48 202.614 272.979 202.614 L 55.537 202.614 C 48.036 202.614 41.956 208.694 41.956 216.196 L 41.956 228.902 L 286.56 228.902 Z M 286.56 380.371 L 286.56 234.6 L 41.956 234.6 L 41.956 380.37 C 41.956 387.872 48.036 393.952 55.537 393.952 L 272.979 393.952 C 280.48 393.952 286.56 387.872 286.56 380.371 M 56.812 196.917 L 57.658 187.681 L 54.066 196.991 C 54.553 196.954 55.04 196.917 55.537 196.917 L 56.812 196.917 Z M 270.213 181.347 L 271.467 196.917 L 272.979 196.917 C 273.788 196.917 274.58 196.983 275.363 197.08 L 270.213 181.347 Z M 287.46 203.511 C 290.437 206.905 292.258 211.337 292.258 216.196 L 292.258 380.371 C 292.258 391.001 283.609 399.65 272.979 399.65 L 55.537 399.65 C 44.907 399.65 36.258 391.002 36.258 380.37 L 36.258 216.197 C 36.258 211.045 38.301 206.37 41.605 202.907 L 60.825 153.09 L 69.206 61.536 L 78.662 62.401 L 71.11 144.893 L 73.77 145.919 L 70.16 155.277 L 66.348 196.917 L 261.941 196.917 L 251.087 62.173 L 260.551 61.41 L 266.953 140.879 L 266.957 140.878 L 287.46 203.511 Z M 57.415 211.901 C 60.726 211.851 62.851 215.404 61.239 218.296 C 60.468 219.68 58.999 220.528 57.415 220.504 C 54.104 220.454 52.089 216.837 53.788 213.995 C 54.553 212.716 55.925 211.924 57.415 211.901 M 72.123 211.901 C 75.434 211.851 77.559 215.404 75.947 218.296 C 75.176 219.68 73.707 220.528 72.123 220.504 C 68.812 220.454 66.797 216.837 68.496 213.995 C 69.261 212.716 70.633 211.924 72.123 211.901 M 86.367 211.901 C 89.678 211.851 91.803 215.404 90.191 218.296 C 89.42 219.68 87.951 220.528 86.367 220.504 C 83.056 220.454 81.041 216.837 82.74 213.995 C 83.505 212.716 84.877 211.924 86.367 211.901" transform="matrix(1, 0, 0, 1, 0, 3.552713678800501e-15)"/>
  <path d="M 72.28 305.252 C 73.019 304.397 73.408 303.273 73.408 301.878 C 73.408 300.483 73.018 299.403 72.28 298.548 C 71.502 297.693 70.412 297.288 69.012 297.288 L 62.165 297.288 L 62.165 306.511 L 69.012 306.511 C 70.412 306.511 71.502 306.106 72.28 305.252 M 69.012 291.755 C 71.968 291.755 74.302 292.655 76.052 294.499 C 77.804 296.343 78.66 298.817 78.66 301.879 C 78.66 304.981 77.804 307.411 76.093 309.255 C 74.342 311.101 72.008 312.045 69.012 312.045 L 62.165 312.045 L 62.165 324.459 L 56.874 324.459 L 56.874 291.755 L 69.012 291.755 Z M 97.556 311.812 L 97.556 302.272 L 103.254 302.272 L 103.254 323.812 L 97.556 323.812 L 97.556 321.87 C 95.829 323.596 93.586 324.459 90.779 324.459 C 88.189 324.459 86.117 323.596 84.52 321.913 C 82.923 320.23 82.146 318.071 82.146 315.395 L 82.146 302.272 L 87.844 302.272 L 87.844 314.186 C 87.844 315.696 88.232 316.949 89.052 317.856 C 89.829 318.762 90.865 319.236 92.203 319.236 C 95.786 319.236 97.556 316.776 97.556 311.812 M 125.482 317.726 C 126.604 316.56 127.165 315.006 127.165 313.064 C 127.165 311.122 126.605 309.524 125.482 308.359 C 124.316 307.193 122.892 306.589 121.122 306.589 C 119.526 306.589 118.102 307.193 116.849 308.402 C 115.597 309.611 114.993 311.164 114.993 313.064 C 114.993 314.964 115.597 316.518 116.849 317.682 C 118.101 318.892 119.525 319.497 121.122 319.496 C 122.892 319.496 124.316 318.892 125.482 317.726 M 122.115 301.625 C 124.921 301.625 127.425 302.705 129.54 304.863 C 131.655 307.063 132.69 309.783 132.69 313.063 C 132.69 316.343 131.655 319.063 129.54 321.222 C 127.425 323.381 124.964 324.459 122.115 324.459 C 119.309 324.459 116.935 323.682 114.993 322.129 L 114.993 334.088 L 109.295 334.088 L 109.295 302.272 L 114.993 302.272 L 114.993 303.999 C 116.893 302.402 119.266 301.625 122.115 301.625 M 153.193 317.725 C 154.315 316.559 154.876 315.005 154.876 313.064 C 154.876 311.122 154.315 309.524 153.193 308.359 C 152.027 307.193 150.603 306.589 148.833 306.589 C 147.236 306.589 145.812 307.193 144.56 308.402 C 143.308 309.611 142.703 311.164 142.703 313.064 C 142.703 314.964 143.308 316.518 144.56 317.682 C 145.812 318.892 147.236 319.497 148.833 319.496 C 150.603 319.496 152.027 318.892 153.193 317.726 M 149.825 301.626 C 152.631 301.626 155.135 302.706 157.251 304.864 C 159.365 307.064 160.401 309.784 160.401 313.064 C 160.401 316.344 159.365 319.064 157.251 321.223 C 155.135 323.382 152.675 324.46 149.825 324.46 C 147.02 324.46 144.646 323.683 142.703 322.13 L 142.703 334.089 L 137.006 334.089 L 137.006 302.273 L 142.703 302.273 L 142.703 304 C 144.603 302.403 146.977 301.626 149.825 301.626 M 168.816 310.561 L 179.219 310.561 C 178.874 309.223 178.226 308.231 177.32 307.581 C 176.413 306.935 175.335 306.59 174.125 306.59 C 172.951 306.589 171.806 306.951 170.845 307.626 C 169.809 308.316 169.118 309.309 168.816 310.561 M 174.126 301.626 C 177.061 301.626 179.608 302.662 181.723 304.691 C 183.838 306.763 184.917 309.395 185.047 312.633 L 185.047 314.576 L 168.644 314.576 C 168.946 316.085 169.594 317.294 170.587 318.202 C 171.579 319.108 172.701 319.582 174.039 319.582 C 176.5 319.582 178.27 318.632 179.392 316.734 L 184.486 317.813 C 183.579 320.015 182.198 321.656 180.386 322.778 C 178.573 323.9 176.457 324.461 174.039 324.46 C 170.931 324.46 168.299 323.382 166.183 321.267 C 164.067 319.152 162.988 316.389 162.988 313.065 C 162.988 309.741 164.068 306.979 166.226 304.82 C 168.341 302.706 170.976 301.626 174.126 301.626 M 200.758 319.152 C 201.837 319.152 203.046 318.806 204.341 318.116 L 205.981 322.864 C 203.995 323.943 202.139 324.461 200.369 324.461 C 197.736 324.461 195.664 323.727 194.153 322.301 C 192.643 320.879 191.909 318.763 191.909 315.871 L 191.909 306.935 L 187.289 306.935 L 187.289 302.273 L 191.909 302.273 L 191.909 295.756 L 197.607 295.756 L 197.607 302.273 L 204.643 302.273 L 204.643 306.935 L 197.607 306.935 L 197.607 315.439 C 197.607 317.899 198.643 319.152 200.757 319.152 M 212.711 310.561 L 223.114 310.561 C 222.769 309.223 222.121 308.231 221.215 307.581 C 220.308 306.935 219.23 306.59 218.02 306.59 C 216.846 306.589 215.701 306.951 214.74 307.626 C 213.704 308.316 213.013 309.309 212.711 310.561 M 218.021 301.626 C 220.956 301.626 223.503 302.662 225.618 304.691 C 227.733 306.763 228.812 309.395 228.942 312.633 L 228.942 314.576 L 212.539 314.576 C 212.841 316.085 213.489 317.294 214.482 318.202 C 215.474 319.108 216.596 319.582 217.934 319.582 C 220.395 319.582 222.165 318.632 223.287 316.734 L 228.38 317.813 C 227.474 320.015 226.093 321.656 224.28 322.778 C 222.467 323.9 220.351 324.461 217.934 324.46 C 214.826 324.46 212.194 323.382 210.078 321.267 C 207.962 319.152 206.883 316.389 206.883 313.065 C 206.883 309.741 207.963 306.979 210.121 304.82 C 212.236 302.706 214.871 301.626 218.021 301.626 M 238.306 310.561 L 248.709 310.561 C 248.364 309.223 247.716 308.231 246.811 307.581 C 245.904 306.935 244.825 306.59 243.615 306.59 C 242.441 306.589 241.296 306.951 240.335 307.626 C 239.299 308.316 238.608 309.309 238.306 310.561 M 243.616 301.626 C 246.551 301.626 249.098 302.662 251.213 304.691 C 253.328 306.763 254.408 309.395 254.538 312.633 L 254.538 314.576 L 238.134 314.576 C 238.436 316.085 239.084 317.294 240.078 318.202 C 241.07 319.108 242.192 319.582 243.53 319.582 C 245.99 319.582 247.76 318.632 248.882 316.734 L 253.977 317.813 C 253.07 320.015 251.689 321.656 249.876 322.778 C 248.063 323.9 245.947 324.461 243.53 324.46 C 240.422 324.46 237.788 323.382 235.674 321.267 C 233.559 319.152 232.478 316.389 232.478 313.065 C 232.478 309.741 233.558 306.979 235.716 304.82 C 237.831 302.706 240.466 301.626 243.616 301.626 M 272.276 301.971 C 272.925 301.971 273.443 302.014 273.789 302.143 L 273.486 307.626 L 272.235 307.626 C 267.098 307.626 264.55 310.691 264.55 316.864 L 264.55 323.813 L 258.853 323.813 L 258.853 302.273 L 264.55 302.273 L 264.55 306.201 C 266.493 303.395 269.083 301.971 272.277 301.971" transform="matrix(1, 0, 0, 1, 0, 3.552713678800501e-15)"/>
  <path fill="white" d="M 247.353 150.142 L 278.094 135.301 L 278.094 120.461 L 207.071 86.539 L 278.094 49.968 L 278.094 35.658 L 248.413 21.877 L 164.317 63.748 L 78.807 21.877 L 51.246 36.718 L 51.246 49.438 L 118.028 86.009 L 51.246 119.931 L 51.246 135.301 L 79.867 150.142 L 164.67 106.68 L 247.353 150.142 Z" transform="matrix(1, 0, 0, 1, 0, 3.552713678800501e-15)"/>
  <path d="M 251.208 144.089 L 251.208 137.697 L 274.348 125.706 L 274.348 132.886 L 251.208 144.089 Z M 53.108 125.538 L 75.468 138.374 L 75.468 143.484 L 53.108 132.172 L 53.108 125.538 Z M 167.641 98.544 L 244.561 136.549 L 244.561 144.191 L 167.641 104.786 L 167.641 98.544 Z M 82.115 137.661 L 160.995 98.551 L 160.995 104.784 L 82.115 144.692 L 82.115 137.661 Z M 137.967 73.756 L 58.145 35.218 L 78.819 24.711 L 164.318 69.034 L 248.385 24.73 L 269.789 35.693 L 191.949 74.867 C 188.836 76.433 188.841 80.877 191.956 82.437 L 268.994 120.994 L 249.026 131.341 L 164.318 87.938 L 78.112 132.227 L 58.423 120.924 L 138.013 81.362 C 141.165 79.795 141.139 75.287 137.968 73.756 M 54.102 48.274 L 54.102 41.26 L 128.548 78.403 L 121.022 81.41 L 54.102 48.274 Z M 206.756 81.822 C 206.654 81.76 199.626 78.444 199.626 78.444 L 274.347 40.839 L 274.347 47.884 L 206.756 81.822 Z M 214.236 85.505 L 279.91 52.529 C 280.575 52.195 280.995 51.514 280.995 50.769 L 280.995 35.169 C 280.995 34.431 280.582 33.754 279.925 33.417 L 249.29 17.726 C 248.729 17.439 248.064 17.438 247.502 17.723 L 165.199 59.487 C 164.643 59.769 163.987 59.771 163.43 59.493 L 79.678 17.711 C 79.12 17.433 78.464 17.436 77.908 17.718 L 47.538 33.152 C 46.877 33.488 46.461 34.166 46.46 34.907 L 46.46 50.762 C 46.46 51.511 46.885 52.195 47.557 52.527 L 113.508 85.111 L 47.862 117.706 C 47.205 118.033 46.784 118.699 46.77 119.433 L 46.483 135.023 C 46.469 135.778 46.889 136.475 47.563 136.816 L 79.099 152.772 C 79.656 153.053 80.313 153.054 80.871 152.774 L 163.429 111.319 C 163.988 111.039 164.646 111.04 165.204 111.323 L 246.734 152.777 C 247.282 153.055 247.929 153.061 248.482 152.794 L 279.884 137.591 C 280.563 137.262 280.994 136.574 280.995 135.82 L 280.995 119.53 C 280.995 118.78 280.568 118.094 279.895 117.763 L 214.236 85.505 Z" transform="matrix(1, 0, 0, 1, 0, 3.552713678800501e-15)"/>
</svg>